<?xml version="1.0" encoding="utf-8"?>
<!-- Generator: Adobe Illustrator 16.0.0, SVG Export Plug-In . SVG Version: 6.00 Build 0)  -->
<!DOCTYPE svg PUBLIC "-//W3C//DTD SVG 1.1//EN" "http://www.w3.org/Graphics/SVG/1.1/DTD/svg11.dtd">
<svg version="1.1" id="Layer_1" xmlns="http://www.w3.org/2000/svg" xmlns:xlink="http://www.w3.org/1999/xlink" x="0px" y="0px"
	 width="100px" height="100px" viewBox="0 0 100 100" enable-background="new 0 0 100 100" xml:space="preserve">
<g>
	<path d="M66.344,47c0-3.825-2.271-6.938-5.062-6.938S56.221,43.174,56.221,47c0,2.524,0.985,4.816,2.557,6.036l-2.424,2.625
		c-0.086,0.092-0.133,0.213-0.133,0.34v3.438c0,0.275,0.223,0.5,0.5,0.5h9.125c0.273,0,0.5-0.225,0.5-0.5v-3.5
		c0-0.127-0.051-0.25-0.138-0.342l-2.407-2.572C65.361,51.803,66.344,49.516,66.344,47z M62.674,53.284l2.67,2.853v2.803h-8.125
		v-2.74l2.688-2.908c0.103-0.109,0.149-0.264,0.127-0.412c-0.022-0.15-0.112-0.281-0.243-0.357c-1.563-0.912-2.57-3.079-2.57-5.518
		c0-3.274,1.821-5.938,4.063-5.938c2.239,0,4.063,2.664,4.063,5.938c0,2.431-1.006,4.594-2.561,5.51
		c-0.133,0.077-0.221,0.209-0.241,0.359C62.523,53.021,62.57,53.173,62.674,53.284z"/>
	<path d="M48.97,40.063H34.156c-0.276,0-0.5,0.225-0.5,0.5c0,0.276,0.224,0.5,0.5,0.5h14.812c0.276,0,0.5-0.224,0.5-0.5
		C49.468,40.287,49.245,40.063,48.97,40.063z"/>
	<path d="M48.97,43.063H34.156c-0.276,0-0.5,0.225-0.5,0.5c0,0.276,0.224,0.5,0.5,0.5h14.812c0.276,0,0.5-0.224,0.5-0.5
		C49.468,43.287,49.245,43.063,48.97,43.063z"/>
	<path d="M48.97,46.063H34.156c-0.276,0-0.5,0.225-0.5,0.5c0,0.276,0.224,0.5,0.5,0.5h14.812c0.276,0,0.5-0.224,0.5-0.5
		C49.468,46.287,49.245,46.063,48.97,46.063z"/>
	<path d="M48.97,49.063H34.156c-0.276,0-0.5,0.225-0.5,0.5c0,0.276,0.224,0.5,0.5,0.5h14.812c0.276,0,0.5-0.224,0.5-0.5
		C49.468,49.287,49.245,49.063,48.97,49.063z"/>
	<path d="M48.97,52.063H34.156c-0.276,0-0.5,0.225-0.5,0.5c0,0.276,0.224,0.5,0.5,0.5h14.812c0.276,0,0.5-0.224,0.5-0.5
		C49.468,52.287,49.245,52.063,48.97,52.063z"/>
	<path d="M48.97,55.063H34.156c-0.276,0-0.5,0.225-0.5,0.5c0,0.276,0.224,0.5,0.5,0.5h14.812c0.276,0,0.5-0.224,0.5-0.5
		C49.468,55.287,49.245,55.063,48.97,55.063z"/>
	<path d="M48.97,58.063H34.156c-0.276,0-0.5,0.225-0.5,0.5c0,0.276,0.224,0.5,0.5,0.5h14.812c0.276,0,0.5-0.224,0.5-0.5
		C49.468,58.287,49.245,58.063,48.97,58.063z"/>
	<path d="M71.594,34.063H28.406c-1.378,0-2.5,1.122-2.5,2.5v26.875c0,1.379,1.122,2.5,2.5,2.5h43.188c1.379,0,2.5-1.121,2.5-2.5
		V36.563C74.094,35.185,72.973,34.063,71.594,34.063z M73.094,63.438c0,0.828-0.673,1.5-1.5,1.5H28.406c-0.827,0-1.5-0.672-1.5-1.5
		V36.563c0-0.827,0.673-1.5,1.5-1.5h43.188c0.827,0,1.5,0.673,1.5,1.5V63.438z"/>
</g>
</svg>
